<svg id="Layer_2" data-name="Layer 2" xmlns="http://www.w3.org/2000/svg" viewBox="0 0 642.64 560.77"><defs><style>.cls-1{fill:none;stroke:#231f20;stroke-miterlimit:10;stroke-width:5px;}</style></defs><title>map</title><line class="cls-1" x1="111.64" y1="282.69" x2="377.64" y2="282.69"/><line class="cls-1" x1="415.64" y1="304.69" x2="622.31" y2="304.69"/><line class="cls-1" x1="459.64" y1="270.03" x2="459.64" y2="536.69"/><line class="cls-1" x1="14.97" y1="470.69" x2="142.31" y2="470.69"/><line class="cls-1" x1="274.31" y1="193.36" x2="274.31" y2="551.36"/><line class="cls-1" x1="74.31" y1="335.36" x2="535.64" y2="335.36"/><line class="cls-1" x1="107.64" y1="236.69" x2="574.97" y2="236.69"/><line class="cls-1" x1="207.64" y1="262.56" x2="628.31" y2="263.69"/><line class="cls-1" x1="415.64" y1="231.36" x2="415.64" y2="532.69"/><line class="cls-1" x1="38.97" y1="393.36" x2="518.97" y2="393.36"/><line class="cls-1" x1="172.97" y1="282.69" x2="172.97" y2="335.36"/><line class="cls-1" x1="238.97" y1="282.69" x2="238.97" y2="340.69"/><line class="cls-1" x1="207.64" y1="154.03" x2="207.64" y2="282.69"/><line class="cls-1" x1="142.31" y1="236.69" x2="142.31" y2="200.03"/><line class="cls-1" x1="488.97" y1="196.03" x2="29.64" y2="196.03"/><line class="cls-1" x1="49.64" y1="231.36" x2="49.64" y2="309.03"/><line class="cls-1" x1="552.31" y1="188.03" x2="552.31" y2="521.36"/><line class="cls-1" x1="580.31" y1="421.36" x2="142.31" y2="470.69"/><line class="cls-1" x1="49.64" y1="231.36" x2="111.64" y2="282.69"/><line class="cls-1" x1="49.64" y1="309.03" x2="111.64" y2="282.69"/><line class="cls-1" x1="107.64" y1="236.69" x2="49.64" y2="286.03"/><line class="cls-1" x1="78.64" y1="196.03" x2="107.64" y2="236.69"/><line class="cls-1" x1="29.64" y1="196.03" x2="49.64" y2="231.36"/><line class="cls-1" x1="377.64" y1="282.69" x2="377.64" y2="196.03"/><line class="cls-1" x1="415.64" y1="231.36" x2="411.88" y2="196.03"/><line class="cls-1" x1="459.64" y1="270.03" x2="488.97" y2="196.03"/><line class="cls-1" x1="552.31" y1="188.03" x2="488.97" y2="196.03"/><line class="cls-1" x1="207.64" y1="335.36" x2="207.64" y2="551.36"/><line class="cls-1" x1="142.31" y1="236.69" x2="142.31" y2="532.69"/><line class="cls-1" x1="74.31" y1="335.36" x2="38.97" y2="393.36"/><line class="cls-1" x1="14.97" y1="470.69" x2="38.97" y2="393.36"/><line class="cls-1" x1="518.97" y1="393.36" x2="535.64" y2="335.36"/><line class="cls-1" x1="612.97" y1="335.36" x2="535.64" y2="335.36"/><line class="cls-1" x1="415.64" y1="304.69" x2="377.64" y2="282.69"/><line class="cls-1" x1="238.97" y1="393.36" x2="238.97" y2="330.03"/><line class="cls-1" x1="628.31" y1="263.69" x2="622.31" y2="304.69"/><line class="cls-1" x1="612.97" y1="335.36" x2="580.31" y2="421.36"/><line class="cls-1" x1="622.31" y1="304.69" x2="612.97" y2="335.36"/><line class="cls-1" x1="142.31" y1="532.69" x2="207.64" y2="551.36"/><line class="cls-1" x1="274.31" y1="551.36" x2="207.64" y2="551.36"/><line class="cls-1" x1="415.64" y1="532.69" x2="274.31" y2="551.36"/><line class="cls-1" x1="459.64" y1="536.69" x2="415.64" y2="532.69"/><line class="cls-1" x1="552.31" y1="521.36" x2="459.64" y2="536.69"/><line class="cls-1" x1="548.26" y1="424.97" x2="518.97" y2="393.36"/><line class="cls-1" x1="74.31" y1="335.36" x2="49.64" y2="309.03"/><line class="cls-1" x1="574.97" y1="236.69" x2="582.97" y2="263.69"/><line class="cls-1" x1="552.31" y1="188.03" x2="574.97" y2="236.69"/><line class="cls-1" x1="207.64" y1="154.03" x2="274.31" y2="104.03"/><line class="cls-1" x1="274.31" y1="193.36" x2="274.31" y2="6.69"/></svg>